<svg xmlns="http://www.w3.org/2000/svg" viewBox="0 0 64 64" role="img" aria-label="Bentuk Kata Sifat">
  <title>Bentuk Kata Sifat</title>
  <rect x="8" y="8" width="48" height="48" rx="12" fill="#EFE6FF"/>
  <circle cx="21" cy="20" r="4" fill="#C9B2FF"/>
  <circle cx="43" cy="20" r="4" fill="#C9B2FF"/>
  <path d="M32 16l4.2 8.5 9.4 1.4-6.8 6.7 1.6 9.4-8.4-4.4-8.4 4.4 1.6-9.4-6.8-6.7 9.4-1.4L32 16Z" fill="#9B7BFF"/>
  <path d="M32 20.5l2.7 5.5 6.1.9-4.4 4.3 1 6.1-5.4-2.9-5.4 2.9 1-6.1-4.4-4.3 6.1-.9L32 20.5Z" fill="#F5C24B"/>
  <path d="M20 47h24" stroke="#AE97E8" stroke-width="2.4" stroke-linecap="round"/>
  <rect x="8" y="8" width="48" height="48" rx="12" fill="none" stroke="#4E3B7D" stroke-width="2.2"/>
</svg>
